<?xml version="1.0" encoding="UTF-8"?> <svg xmlns="http://www.w3.org/2000/svg" width="192" height="30" viewBox="0 0 192 30" fill="none"> <g clip-path="url(#clip0_83_109)"> <path d="M45.1938 29.8156H39.908V1.01318H61.3949V5.87682H45.0537V12.9905H61.4398V17.8119H45.1938V29.8156Z" fill="#010101"></path> <path d="M68.832 5.96376H63.4141V1.01318H68.832V5.96376ZM68.832 29.8156H63.4141V8.28755H68.832V29.8156Z" fill="#010101"></path> <path d="M80.8733 13.1118C80.2127 13.0874 79.553 13.1765 78.9228 13.3752C78.4759 13.5191 78.073 13.7738 77.752 14.1156C77.4671 14.438 77.268 14.8267 77.1732 15.2459C77.0643 15.7104 77.0111 16.1863 77.0146 16.6633V29.8157H71.623V8.28766H76.9961V8.8383C78.1028 8.46606 79.2639 8.27997 80.4319 8.28766H82.8105C84.0448 8.26224 85.2722 8.47795 86.4234 8.92261C87.3912 9.30043 88.273 9.8685 89.0161 10.593C89.6937 11.2688 90.2252 12.0758 90.578 12.9642C90.9232 13.8177 91.1026 14.7288 91.1066 15.649V29.8157H85.7256V16.6633C85.7292 16.1874 85.6832 15.7123 85.5882 15.2459C85.508 14.8347 85.3263 14.4499 85.0596 14.1261C84.758 13.7816 84.3706 13.5226 83.9364 13.3752C83.2987 13.1734 82.6306 13.0842 81.9621 13.1118H80.8733Z" fill="#010101"></path> <path d="M99.8653 6.34316H91.8784V1.01318H113.55V6.34316H105.466V29.8156H99.8653V6.34316Z" fill="#010101"></path> <path d="M120.477 12.6877C120.934 12.0108 121.518 11.4291 122.198 10.9751C122.94 10.4696 123.738 10.0506 124.576 9.7263C125.474 9.38125 126.403 9.12618 127.351 8.96488C128.322 8.7935 129.305 8.70535 130.29 8.70141H130.888V13.955H130.296C129.137 13.9656 127.988 14.1732 126.9 14.5689C125.769 14.961 124.697 15.5015 123.71 16.176C122.809 16.7793 122.017 17.5303 121.368 18.3971C120.813 19.0974 120.498 19.9576 120.472 20.8499V29.8079H114.784V8.11914H120.477V12.6877Z" fill="#010101"></path> <path d="M132.183 15.0983C132.272 14.2097 132.496 13.3399 132.849 12.519C133.201 11.6985 133.726 10.9627 134.387 10.3612C135.124 9.7039 135.981 9.19405 136.911 8.8594C138.03 8.46109 139.212 8.26741 140.4 8.28767H143.156C144.387 8.26214 145.611 8.47787 146.759 8.92263C147.713 9.30004 148.581 9.86854 149.306 10.593C149.971 11.2708 150.487 12.0781 150.823 12.9642C151.154 13.8212 151.325 14.731 151.328 15.649V29.8157H138.291C137.361 29.8327 136.437 29.6531 135.582 29.2888C134.826 28.9657 134.146 28.4902 133.584 27.8924C133.041 27.3037 132.633 26.6042 132.389 25.8426C132.125 25.0227 131.994 24.1663 132.001 23.3054C131.993 22.4694 132.131 21.6384 132.41 20.8499C132.664 20.1086 133.077 19.4315 133.62 18.8655C134.163 18.2995 134.824 17.8582 135.555 17.5723C136.395 17.2362 137.293 17.0705 138.198 17.0849H146.048V16.6633C146.051 16.1874 146.005 15.7123 145.91 15.2459C145.831 14.8387 145.658 14.4554 145.405 14.1261C145.115 13.7791 144.733 13.5192 144.303 13.3753C143.666 13.173 142.998 13.0838 142.329 13.1118H141.182C139.957 13.1118 139.085 13.2743 138.566 13.5992C138.031 13.9436 137.651 14.4823 137.508 15.101L132.183 15.0983ZM136.903 23.3028C136.903 24.0352 137.064 24.5779 137.387 24.931C137.517 25.0918 137.681 25.2223 137.868 25.3133C138.054 25.4043 138.258 25.4537 138.465 25.4579H146.048V21.1449H138.473C138.264 21.1512 138.058 21.2038 137.872 21.2991C137.685 21.3943 137.522 21.5298 137.395 21.6956C137.067 22.0609 136.903 22.5967 136.903 23.3028Z" fill="#010101"></path> <path d="M163.068 24.9521C163.729 24.9711 164.382 24.8021 164.95 24.4647C165.456 24.1708 165.825 23.6885 165.975 23.1237H171.441C171.164 25.1524 170.307 26.7736 168.869 27.9873C167.431 29.201 165.498 29.8105 163.068 29.8158H161.186C159.97 29.8311 158.76 29.645 157.605 29.2651C156.612 28.9497 155.701 28.4206 154.935 27.7154C154.17 27.0102 153.569 26.1461 153.176 25.184C152.752 24.1583 152.541 23.0578 152.554 21.9486V16.1523C152.537 15.0359 152.748 13.9278 153.176 12.8958C153.568 11.9658 154.155 11.1297 154.896 10.4429C155.682 9.73858 156.604 9.20078 157.605 8.86211C158.757 8.46858 159.969 8.2752 161.186 8.29038H163.068C165.547 8.29038 167.506 8.89724 168.946 10.1109C170.385 11.3247 171.212 12.988 171.425 15.101H166.007C165.85 14.5184 165.493 14.0093 164.997 13.6625C164.421 13.3008 163.748 13.1234 163.068 13.154H161.186C160.3 13.1198 159.436 13.4307 158.776 14.0208C158.469 14.3084 158.227 14.6583 158.066 15.0468C157.906 15.4353 157.831 15.8536 157.846 16.2735V21.78C157.832 22.2054 157.908 22.6289 158.07 23.0227C158.233 23.4164 158.477 23.7714 158.786 24.0642C159.441 24.666 160.307 24.9852 161.197 24.9521H163.068Z" fill="#010101"></path> <path d="M192 29.8156H185.94L178.045 21.6112V29.8156H172.627V1.01318H178.045V15.0982L185.483 8.28755H191.876L180.614 18.2282L192 29.8156Z" fill="#010101"></path> <path d="M5.00293 8.04509V10.9011H6.49882V8.04509C6.49952 7.89297 6.56044 7.74728 6.66834 7.63972C6.77624 7.53215 6.92238 7.47142 7.07498 7.47073H26.5533V5.97949H7.07498C6.52565 5.98019 5.99902 6.19804 5.61059 6.58526C5.22216 6.97248 5.00363 7.49747 5.00293 8.04509Z" fill="#423B8F"></path> <path d="M6.75001 0.992188C4.96044 0.994279 3.24477 1.7039 1.97935 2.96537C0.713932 4.22685 0.00209838 5.93718 0 7.72118L0 13.7019C0.39552 13.0778 0.902542 12.5312 1.49589 12.0895V7.72118C1.49659 6.33201 2.05029 4.9999 3.0354 4.01736C4.02051 3.03483 5.3565 2.48218 6.75001 2.48079H26.5534V0.992188H6.75001Z" fill="#423B8F"></path> <path d="M2.50806 8.03749V11.4837C2.93558 11.2791 3.3864 11.1269 3.85066 11.0305V8.03749C3.85415 7.21639 4.18362 6.43007 4.76704 5.85045C5.35045 5.27083 6.14034 4.94506 6.96402 4.94437H26.5533V3.59277H6.96402C5.78241 3.59486 4.64984 4.0639 3.81456 4.89707C2.97928 5.73024 2.50945 6.85956 2.50806 8.03749Z" fill="#7FCDEA"></path> <path d="M7.17541 17.2588C6.94538 17.2591 6.7169 17.2965 6.49882 17.3694C6.06296 17.5127 5.68363 17.7896 5.41499 18.1605C5.14635 18.5315 5.00214 18.9775 5.00293 19.435V30.0001H6.49882V19.435C6.49882 19.2559 6.57002 19.0841 6.69683 18.9572C6.82364 18.8303 6.99573 18.7586 7.17541 18.7579H26.5533V17.2588H7.17541Z" fill="#423B8F"></path> <path d="M5.87257 12.2344C5.58144 12.2336 5.29071 12.2556 5.00305 12.3003C4.61037 12.3565 4.22434 12.4518 3.85073 12.5848C3.37417 12.7629 2.92285 13.0021 2.50813 13.2962C2.13467 13.5527 1.79465 13.8545 1.4959 14.1946C0.531271 15.2635 -0.00168793 16.6509 4.01612e-06 18.0887V29.9922H1.4959V18.0887C1.49751 17.2909 1.71771 16.5087 2.13272 15.8266C2.54774 15.1445 3.14179 14.5884 3.85073 14.2183C4.21337 14.0282 4.6014 13.8907 5.00305 13.8099C5.28945 13.7537 5.58067 13.7255 5.87257 13.7256H26.5534V12.2344H5.87257Z" fill="#423B8F"></path> <path d="M6.96402 14.79C6.80861 14.7908 6.65335 14.7996 6.49886 14.8164C5.97886 14.8695 5.47241 15.014 5.00297 15.2432C4.25464 15.6105 3.62436 16.1793 3.18345 16.8852C2.74253 17.5911 2.50858 18.4059 2.50806 19.2374V29.9922H3.85066V19.2374C3.85156 18.9561 3.88977 18.6761 3.9643 18.4048C4.12607 17.8281 4.4512 17.3102 4.90073 16.913C5.35026 16.5158 5.90513 16.2562 6.49886 16.1653C6.65294 16.1433 6.80836 16.1318 6.96402 16.1311H26.5533V14.79H6.96402Z" fill="#7FCDEA"></path> </g> <defs> <clipPath id="clip0_83_109"> <rect width="192" height="29" fill="white" transform="translate(0 0.992188)"></rect> </clipPath> </defs> </svg> 